<svg width="796" height="161" viewBox="0 0 796 161" fill="none" xmlns="http://www.w3.org/2000/svg">
<g clip-path="url(#clip0_40_7848)">
<path d="M50.8399 84.8776C49.3285 84.8776 47.8172 84.7981 46.3058 84.5597C37.6355 83.3676 29.9197 78.9171 24.5903 71.9234C19.2608 64.9298 17.0336 56.3467 18.1472 47.6046C20.6131 29.6436 37.1583 17.0868 55.1352 19.471C73.1122 21.9346 85.6802 38.4651 83.2939 56.4261C82.1803 65.1682 77.6462 72.8771 70.6464 78.2018C64.9192 82.5729 57.9988 84.8776 50.8399 84.8776ZM50.7603 22.5704C36.2037 22.5704 23.5562 33.2993 21.5676 48.0814C20.454 55.8698 22.5221 63.5787 27.2948 69.8571C32.0674 76.1355 38.9878 80.1887 46.7831 81.2218C54.5784 82.255 62.3738 80.2682 68.6578 75.4997C74.9417 70.7313 78.9985 63.8172 80.0326 56.0288C82.2598 39.8956 70.885 25.0341 54.7375 22.8883C53.3853 22.6499 52.1126 22.5704 50.7603 22.5704Z" fill="#19CDCA"/>
<path d="M70.6464 45.6972C74.9955 45.6972 78.5212 42.1746 78.5212 37.8293C78.5212 33.484 74.9955 29.9615 70.6464 29.9615C66.2972 29.9615 62.7715 33.484 62.7715 37.8293C62.7715 42.1746 66.2972 45.6972 70.6464 45.6972Z" fill="#19CDCA"/>
<path d="M50.8396 99.1034C48.6919 99.1034 46.5443 98.9444 44.3966 98.706C31.9877 96.9576 20.931 90.5202 13.2948 80.5066C5.7381 70.4929 2.47678 58.1745 4.14721 45.6972C7.64716 20.0273 31.4309 1.90735 57.1236 5.40418C82.8164 8.90101 100.952 32.6636 97.4525 58.3335C95.7821 70.8108 89.339 81.8576 79.3165 89.4076C70.9643 95.7655 61.1008 99.1034 50.8396 99.1034ZM50.7601 15.0999C32.5445 15.0999 16.6356 28.531 14.1698 47.0483C12.8175 56.8235 15.3629 66.5192 21.4083 74.3871C27.3741 82.255 36.0444 87.2618 45.8284 88.6129C55.6123 89.9639 65.3167 87.4208 73.1916 81.3808C81.0664 75.4203 86.0777 66.7577 87.43 56.9824C90.214 36.7962 75.9756 18.1199 55.7714 15.4178C54.101 15.1794 52.4305 15.0999 50.7601 15.0999Z" fill="#19CDCA"/>
<path d="M74.6897 85.9755L66.6494 92.0859L115.865 156.73L123.905 150.62L74.6897 85.9755Z" fill="#19CDCA"/>
<path d="M170.792 153.225C162.917 153.225 155.599 150.364 148.997 144.642C139.213 136.138 134.281 124.296 135.156 111.342C135.713 102.6 137.861 91.7123 147.645 80.1887C143.111 70.4135 140.883 60.3203 141.122 50.0682C128.793 49.8298 117.497 47.2867 107.157 42.3593L111.452 33.4583C120.759 37.9088 130.861 40.2135 141.997 40.293C143.111 33.3788 145.338 26.5441 148.599 19.7094C154.486 7.54995 169.36 2.78155 179.621 5.96048C188.212 8.66258 192.587 16.451 190.996 26.3057C188.849 39.6572 172.94 46.174 163.872 48.0019C159.497 48.8761 155.201 49.4325 150.986 49.8298C150.826 57.5388 152.179 65.1682 155.201 72.6387C156.951 71.1287 158.781 69.6187 160.849 68.0292C166.656 63.6582 176.201 59.0487 183.996 60.4793C187.815 61.1945 190.917 63.2608 192.905 66.5193C197.121 73.354 195.61 85.0366 189.724 91.0766C182.724 98.3086 175.406 98.7855 170.474 97.9907C163.713 96.8781 157.906 92.666 153.849 88.4539C147.247 97.1165 145.656 105.064 145.179 112.058C144.543 121.912 148.281 130.813 155.679 137.251C162.997 143.529 171.269 145.039 180.417 141.622C200.78 133.992 219.95 104.587 224.246 74.705L234.03 76.0561C229.257 109.753 207.701 141.94 183.917 150.841C179.224 152.43 174.928 153.225 170.792 153.225ZM160.292 81.1424C163.235 84.2418 167.372 87.5002 171.906 88.2155C175.644 88.8513 179.144 87.5002 182.406 84.1624C185.11 81.3808 186.144 74.705 184.235 71.685C183.678 70.8108 183.042 70.4135 181.928 70.175C178.349 69.5392 171.747 71.9234 166.576 75.8971C164.269 77.6455 162.201 79.394 160.292 81.1424ZM172.86 14.8615C167.133 14.8615 160.213 18.1199 157.349 24.001C154.804 29.2462 152.974 34.5709 151.94 39.8162C155.122 39.4983 158.463 39.0214 161.804 38.3062C170.394 36.6372 180.019 31.3125 181.053 24.7957C181.849 19.7094 180.337 16.6099 176.44 15.4178C175.406 15.0205 174.212 14.8615 172.86 14.8615Z" fill="#2461DE"/>
<path d="M253.2 151.794C251.45 151.794 249.7 151.635 247.95 151.238C240.791 149.648 223.927 141.94 222.257 104.984C222.177 102.521 222.337 100.137 222.496 97.8318L222.575 96.7986L224.325 69.5392L234.189 70.175L232.359 98.4676C232.2 100.613 232.12 102.6 232.2 104.508C233.155 125.727 239.757 139.237 250.177 141.622C258.927 143.609 269.188 137.171 275.074 126.045C278.415 119.766 281.279 110.309 282.87 100.454C268.631 97.0371 260.04 82.5729 258.847 69.1419C257.893 59.0487 261.711 54.2009 265.052 51.8961C270.54 48.1609 277.381 49.353 281.676 51.4193C286.37 53.724 289.79 58.254 291.938 64.8503C294.165 71.844 294.722 80.9039 294.085 90.2818C298.222 88.6129 301.483 85.0366 305.301 80.4271L312.937 86.7055C308.562 92.0302 302.597 99.1828 292.972 100.772C291.222 112.058 287.881 123.025 283.904 130.575C276.824 143.688 264.813 151.794 253.2 151.794ZM273.245 59.2872C272.211 59.2872 271.256 59.5256 270.54 60.0024C268.949 61.1151 268.234 63.9761 268.631 68.1882C269.506 77.6455 274.995 87.7387 284.063 90.5202C284.699 82.0166 284.301 73.9103 282.392 67.8703C281.517 65.1682 279.927 61.5919 277.142 60.2409C276.029 59.6845 274.597 59.2872 273.245 59.2872Z" fill="#2461DE"/>
<path d="M349.448 151.953C348.335 151.953 347.221 151.953 346.028 151.874C335.13 151.238 325.506 146.311 319.063 137.966C311.665 128.429 308.404 112.932 309.995 96.8781C306.415 94.176 303.949 91.6329 300.449 87.8181L305.142 80.4271C306.892 82.3345 310.154 84.4803 311.904 85.9902C312.063 85.4339 312.142 84.4803 312.301 83.9239C316.835 66.7577 326.46 54.0419 338.71 48.9556C347.38 45.3793 357.403 46.0946 365.596 50.863C373.073 55.234 377.846 62.4661 378.8 70.8108C379.755 78.7582 377.05 87.1029 371.482 93.7787C363.369 103.474 350.483 109.038 338.79 107.766C331.71 107.051 325.426 105.382 319.54 102.521C319.142 114.283 321.767 125.171 326.858 131.767C331.631 137.886 338.392 141.383 346.585 141.86C367.664 143.132 377.925 130.257 385.243 117.462L393.834 122.389C386.596 135.264 374.107 151.953 349.448 151.953ZM320.653 92.1097C326.381 95.4476 332.506 97.2755 339.824 97.9907C348.255 98.865 357.96 94.6529 363.925 87.4208C367.744 82.8908 369.653 77.0892 369.016 71.9235C368.38 66.6782 365.437 62.1482 360.585 59.3666C355.176 56.1877 348.255 55.6314 342.528 58.0156C333.142 61.9098 325.585 72.2413 321.847 86.3876C321.449 88.3745 320.972 90.2818 320.653 92.1097Z" fill="#2461DE"/>
<path d="M409.982 152.112C408.232 135.105 409.027 113.965 409.823 93.2223C409.982 88.7718 410.141 84.4008 410.3 80.1092C409.823 81.5397 409.345 82.8908 408.948 84.2418C404.493 97.8318 398.368 116.349 390.414 128.191L382.221 122.628C389.459 111.978 395.266 94.176 399.561 81.1424C404.254 66.9166 405.766 62.784 408.948 61.1151L409.345 60.8766L409.743 60.7177C412.845 59.764 415.868 60.0819 417.936 61.5919C419.606 62.784 420.481 64.6914 420.481 66.7577C420.402 75.1819 420.084 84.0829 419.686 93.4607C418.97 113.885 418.175 134.946 419.845 151.317L409.982 152.112Z" fill="#2461DE"/>
<path d="M409.982 152.112C408.868 120.482 415.232 91.9508 428.356 69.5392C431.538 64.0556 441.72 51.8167 451.106 51.0219C458.185 50.3861 464.549 52.6114 469.64 57.4593C475.208 62.7045 481.571 73.5924 480.696 95.4476C480.537 99.5007 479.981 104.508 479.424 109.753C478.628 116.985 477.833 124.535 477.833 130.813C477.833 139.635 479.424 141.224 479.503 141.224C480.458 142.019 481.492 142.257 482.765 142.098C486.901 141.542 492.867 136.694 497.878 129.86L505.832 135.661C502.571 140.112 493.98 150.602 484.117 151.953C480.14 152.51 476.401 151.476 473.378 149.013C466.538 143.529 467.492 129.542 469.719 108.72C470.276 103.633 470.753 98.7855 470.912 95.0502C471.469 80.9039 468.685 70.0161 462.879 64.6119C459.856 61.7508 456.276 60.4793 452.061 60.8766C448.242 61.1945 440.288 68.9035 436.947 74.5461C424.777 95.2886 418.891 121.992 419.925 151.794L409.982 152.112Z" fill="#2461DE"/>
<path d="M528.184 137.569C524.843 137.569 521.343 137.012 518.082 135.9C510.684 133.277 504.957 128.111 501.776 120.959C497.242 126.363 492.389 130.972 487.378 134.628L481.571 126.681C487.537 122.389 493.185 116.429 498.435 109.196C495.571 94.7323 494.776 74.864 496.367 55.9493C497.957 37.1141 502.332 13.7489 514.105 9.37784C518.4 7.78837 523.73 8.34469 527.627 10.8084C530.491 12.6363 533.991 16.2126 534.707 23.1267C536.218 39.4983 532.241 61.7508 523.889 82.6524C519.673 93.3018 514.662 102.918 509.014 111.263C509.253 112.296 509.571 113.329 509.809 114.362C512.116 121.912 517.287 125.171 521.264 126.522C527.23 128.588 532.877 127.475 534.945 126.124C549.9 115.793 554.832 96.7986 556.422 82.6524L566.206 83.6855C564.456 99.8186 558.57 121.674 540.593 134.151C537.411 136.456 532.957 137.569 528.184 137.569ZM519.275 18.3583C518.639 18.3583 518.003 18.4378 517.525 18.5968C514.184 19.8683 508.378 31.0741 506.23 56.744C505.116 70.2545 505.275 84.4008 506.548 96.4013C509.491 90.9971 512.275 85.1955 514.741 78.9966C522.537 59.4461 526.275 38.942 524.923 24.0804C524.684 21.6962 523.889 20.1068 522.457 19.1531C521.423 18.6762 520.309 18.3583 519.275 18.3583Z" fill="#19CDCA"/>
<path d="M586.013 137.966C574.558 137.966 566.524 132.721 560.24 121.276C553.479 109.038 555.309 94.4939 556.74 82.8113L566.524 83.765C565.252 94.0171 563.661 107.051 568.831 116.429C573.922 125.648 579.013 128.667 588.24 127.952C599.217 127.158 606.615 119.608 610.83 104.905C611.149 103.713 611.467 102.521 611.785 101.329C608.683 100.693 605.66 99.7392 602.956 98.5471C586.013 91.0766 573.842 73.6719 573.365 56.3467C573.127 48.2404 576.388 41.0878 582.115 37.1141C590.308 31.4715 600.967 33.7762 607.967 38.6241C618.387 45.8562 624.671 59.1282 625.228 74.864C625.387 79.9503 624.989 85.5134 623.955 91.6329C627.535 90.8381 630.876 88.9308 633.421 85.6724L641.216 91.7123C635.966 98.4676 628.967 101.408 621.808 101.964C621.33 103.792 620.853 105.7 620.296 107.607C613.615 131.211 599.535 137.092 588.956 137.807C587.922 137.886 586.967 137.966 586.013 137.966ZM593.092 43.7104C591.183 43.7104 589.274 44.1872 587.763 45.2204C584.342 47.6046 583.149 52.373 583.308 56.0288C583.706 69.6982 593.41 83.5266 607.012 89.4871C609.16 90.4408 611.467 91.156 613.933 91.6329C615.046 85.5134 615.524 79.9503 615.364 75.1819C614.967 62.7045 610.035 52.0551 602.319 46.6509C599.694 44.9025 596.274 43.7104 593.092 43.7104Z" fill="#19CDCA"/>
<path d="M663.011 138.125C651.557 138.125 643.523 132.88 637.239 121.435C630.478 109.197 632.307 94.6529 633.739 82.9703L643.523 84.1624C642.25 94.4144 640.66 107.21 645.83 116.588C650.921 125.806 656.012 128.826 665.239 128.111C676.216 127.316 683.613 119.766 687.829 105.064C688.227 103.713 688.545 102.362 688.943 101.011C685.682 100.613 682.659 99.8186 680.034 98.6265C663.091 91.156 650.921 73.7513 650.443 56.4261C650.205 48.3198 653.466 41.1672 659.193 37.1936C667.386 31.5509 678.045 33.8557 685.045 38.7035C695.465 45.9356 701.749 59.2077 702.306 74.9434C702.465 79.7119 702.147 84.9571 701.272 90.5997C706.761 89.4076 712.011 86.8645 715.113 82.8113L722.908 88.8513C717.499 95.845 708.431 99.7392 699.284 100.852C698.727 103.077 698.17 105.302 697.534 107.607C690.852 131.211 676.773 137.092 666.193 137.807C664.921 138.125 663.966 138.125 663.011 138.125ZM670.091 43.8693C668.182 43.8693 666.273 44.3462 664.761 45.3793C661.341 47.7635 660.148 52.5319 660.307 56.1877C660.705 69.9366 670.409 83.6855 684.011 89.646C686 90.5202 688.466 91.0766 691.011 91.315C692.045 85.4339 692.522 80.0297 692.363 75.3408C691.966 62.8635 687.034 52.214 679.318 46.8098C676.693 45.1409 673.273 43.8693 670.091 43.8693Z" fill="#19CDCA"/>
<path d="M716.624 136.694C716.067 110.548 711.056 50.9425 707.636 22.4115L717.42 21.2194C720.601 46.8893 725.851 108.004 726.488 136.535L716.624 136.694Z" fill="#19CDCA"/>
<path d="M764.112 134.946C759.658 134.946 755.044 134.072 750.669 132.164C742.317 128.667 734.601 121.833 728.556 112.534L728.238 112.058C727.601 111.024 726.886 109.991 726.249 109.276C726.011 110.071 725.772 110.865 725.692 111.74L715.908 110.15C716.147 108.72 716.465 107.289 716.943 105.938L716.147 105.779C717.102 92.5071 727.204 66.9961 733.408 55.9493C740.726 42.8362 748.442 41.0083 752.34 41.0878C756.635 41.1672 760.374 43.5514 762.442 47.4456C765.385 53.0088 764.43 60.3998 759.817 67.2345C754.965 74.4666 753.294 76.9303 739.851 90.7587L739.135 91.5534C736.272 94.4939 733.408 97.4344 731.022 100.613C733.567 102.362 735.158 104.746 736.431 106.812L736.749 107.289C741.76 114.998 747.885 120.482 754.408 123.263C761.726 126.283 769.998 125.727 775.487 121.833C783.362 116.27 785.43 104.746 785.748 96.0834L795.612 96.4807C794.975 112.296 790.123 123.502 781.214 129.86C776.362 133.197 770.396 134.946 764.112 134.946ZM752.181 51.0219C750.431 51.0219 746.374 53.0882 741.999 60.8766C738.817 66.5193 734.681 75.9766 731.34 85.3545C731.579 85.116 731.817 84.8776 732.056 84.6392L732.772 83.9239C745.578 70.7313 747.01 68.665 751.544 61.8303C754.328 57.6182 754.567 53.9625 753.612 52.0551C753.215 51.1809 752.658 51.0219 752.181 51.0219Z" fill="#19CDCA"/>
</g>
<defs>
<clipPath id="clip0_40_7848">
<rect width="795.442" height="160.695" fill="white" transform="translate(0.249512)"/>
</clipPath>
</defs>
</svg>
