<svg width="52" height="61" viewBox="0 0 52 61" fill="none" xmlns="http://www.w3.org/2000/svg">
<path d="M21.7129 31.4826C21.2309 31.4826 20.7489 31.4572 20.267 31.3812C17.5019 31.001 15.0413 29.5817 13.3417 27.3514C11.642 25.121 10.9318 22.3838 11.2869 19.5959C12.0733 13.8679 17.3497 9.86345 23.0827 10.6238C28.8158 11.4095 32.8238 16.6812 32.0628 22.4091C31.7076 25.1971 30.2617 27.6555 28.0294 29.3536C26.2029 30.7476 23.996 31.4826 21.7129 31.4826ZM21.6875 11.6122C17.0453 11.6122 13.0119 15.0338 12.3777 19.7479C12.0225 22.2317 12.6821 24.6902 14.2041 26.6924C15.7262 28.6947 17.9332 29.9872 20.4192 30.3167C22.9052 30.6462 25.3912 30.0126 27.3952 28.4919C29.3992 26.9712 30.6929 24.7662 31.0227 22.2824C31.733 17.1374 28.1055 12.3979 22.9559 11.7136C22.5246 11.6376 22.1188 11.6122 21.6875 11.6122Z" fill="#4F7FE1"/>
<path d="M28.0294 18.9876C29.4164 18.9876 30.5408 17.8642 30.5408 16.4784C30.5408 15.0927 29.4164 13.9693 28.0294 13.9693C26.6424 13.9693 25.5181 15.0927 25.5181 16.4784C25.5181 17.8642 26.6424 18.9876 28.0294 18.9876Z" fill="#4F7FE1"/>
<path d="M21.713 36.0193C21.0281 36.0193 20.3432 35.9686 19.6583 35.8926C15.7009 35.335 12.1749 33.2821 9.73961 30.0886C7.32971 26.8952 6.28965 22.9667 6.82236 18.9876C7.93853 10.8012 15.5234 5.0226 23.717 6.13777C31.9107 7.25294 37.6945 14.831 36.5783 23.0174C36.0456 26.9966 33.9908 30.5195 30.7945 32.9273C28.131 34.9548 24.9854 36.0193 21.713 36.0193ZM21.6876 9.22984C15.8785 9.22984 10.805 13.5131 10.0187 19.4185C9.58741 22.5359 10.3992 25.6279 12.3271 28.1371C14.2296 30.6462 16.9947 32.2429 20.1149 32.6738C23.2351 33.1047 26.3299 32.2936 28.8413 30.3674C31.3526 28.4666 32.9508 25.704 33.382 22.5866C34.2699 16.149 29.7291 10.1929 23.2858 9.33122C22.7531 9.25518 22.2204 9.22984 21.6876 9.22984Z" fill="#4F7FE1"/>
<path d="M29.319 31.8328L26.7549 33.7814L42.4502 54.3972L45.0143 52.4485L29.319 31.8328Z" fill="#4F7FE1"/>
</svg>
