<svg width="39" height="39" viewBox="0 0 39 39" fill="none" xmlns="http://www.w3.org/2000/svg">
<path d="M23.8371 0.674416V4.86046H31.6015L10.3413 25.4349L13.3908 28.386L34.651 7.81162V15.3256H38.9766V0.674416M34.651 34.1628H4.37197V4.86046H19.5115V0.674416H4.37197C3.22475 0.674416 2.12452 1.11544 1.31332 1.90048C0.502116 2.68552 0.0463867 3.75025 0.0463867 4.86046V34.1628C0.0463867 35.273 0.502116 36.3377 1.31332 37.1228C2.12452 37.9078 3.22475 38.3488 4.37197 38.3488H34.651C35.7983 38.3488 36.8985 37.9078 37.7097 37.1228C38.5209 36.3377 38.9766 35.273 38.9766 34.1628V19.5116H34.651V34.1628Z" fill="#2461DE" fill-opacity="0.61"/>
</svg>
